<?xml version="1.0" encoding="UTF-8"?>
<svg viewBox="0 0 640 480" xmlns="http://www.w3.org/2000/svg">
 <path d="m65.844 57.875 9.9062-2.4688c14.625-20.974 56.67-31.856 89.562 5.9375l6.4688-3.6875c-27.791-34.173-78.877-40.622-105.94 0.21875zm-6.9448 38.872-1.1664-7.5883c-47.378-20.217-14.876-68.462 14.799-49.065l5.6342-4.7638c-40.196-28.808-84.289 37.454-19.267 61.417zm123.48-28.216-4.9062 3.2812c75.962 66.965 116.16-66.193 192.56-12.094-75.606-62.424-116.53 68.433-187.66 8.8125zm-53.656 16.062 1.0248 6.4917c38.684-5.5782 83.897-71.582 137.53-29.106l4.5498-3.9745c-56.782-49.001-109.15 20.993-143.1 26.588zm-38.625-38.625-4.8438 4.3438c9.9964 10.387 10.213 21.031 11.651 37.921l7.193-1.3272c-0.8863-15.139-2.5048-29.798-14-40.938zm12.144 13.447 1.6011 6.2693c13.614 4.4968 18.043 16.404 14.505 38.409l6.284-0.3502c3.7145-23.1 0.57055-39.331-22.39-44.328zm-39.798 17.261c-3.3345 12.646-1.3665 41.171 30.091 41.324l1.1562-6.5c-25.589-1.0174-27.094-23.307-22.094-38.906l-9.1535 4.0827zm-26.409 10.574c-36.963 69.94 103.09 89.263 29.442 195.59l2.2459 6.2812c82.638-109.48-57.003-136.94-25.562-196.88l-6.125-5zm78.364 0.4715c-11.955 4.37-27.35 5.6064-40.013 5.2362l1.1949 5.67c9.5362 1.2754 31.205-1.6045 39.454-4.6278l-0.63602-6.2785zm-16.833 13.872c-0.18294 20.983 1.1447 41.574-24.688 63.594l3.8438 5.3438c26.055-20.618 27.498-39.586 27.312-70.001l-6.4688 1.0634zm9.4688 8.75 0.42648 6.898c43.571-12.032 45.945 12.046 38.355 20.258s-24.994 1.8215-22.625-19.094l-6.0708 0.36949c-3.8507 25.166 20.611 37.605 34.227 24.126 13.543-13.406 3.4712-46.657-44.312-32.558zm-44.938 63.781c-55.534 54.36 15.593 130.91 15.109 173.99-0.48066 42.819-29.028 59.975-29.855 97.018-0.82903 37.128 23.825 66.107 22.791 77.723s-16.029 12.978-15.763-2.4061c-3.3433 19.484 18.623 18.169 18.22 0.93195-0.402-17.221-21.508-38.523-20.858-75.159 0.66182-37.297 28.889-48.456 30.465-98.108s-68.151-116.04-15.234-169.68l-4.875-4.3125zm26.283-114.84c-17.544 0.04941-33.886 7.5735-42.579 17.365l5.9211 4.7582c7.1999-7.0392 19.513-16.14 39-15.469l-2.3421-6.6549zm462.48 15.416c-16.348-0.91798-40.681-21.985-97.033-21.53s-122.68 52.935-168.95 15.331l-3.6562 4.4062c49.639 41.692 117.54-14.457 172.61-14.831s76.368 18.049 96.471 19.53 24.17-22.191-1.7988-19.585c22.448 1.3762 18.709 17.597 2.3613 16.679zm-494.91 218.82s-13.468 22.534-14.705 35.335c-1.2397 12.822-2.0173 24.873 8.6277 35.801-6.3366-11.474-6.7105-15.966-5.5416-31.522s14.668-33.499 14.668-33.499l-3.0493-6.115z" fill="#969494" fill-rule="evenodd" stroke="#c4c4c4"/>
 <g fill-rule="evenodd" stroke="#0c0c0c">
  <path d="m218.46 85.311c6.8522-1.4305 10.775-4.0296 11.244-6.3866-0.49608-3.115-7.4351-1.0132-6.2169-9.61 0.88045-6.2131 4.5227-1.6998 8.1037 0.0583 0.36041-2.4425-14.522-8.8719-7.3145-13.039 13.73-3.3714 13.046 4.4335 14.442 11.532 0.19231-2.3325 1.0461-3.623 0.24951-6.047 3.5352 2.1856 5.1297 2.2442 5.9781 6.7564 1.5452 8.2174-13.783 17.92-26.486 16.736z" fill="#fff"/>
  <path d="m228.31 82.485c5.556-1.8258 15.085-13.869 0.24416-23.878 17.763 9.172 5.809 22.938-0.24416 23.878z" fill="#fff"/>
  <g fill="#fff">
   <path d="m198.33 46.142c-1.8693 5.0634-6.7171 8.3926-11.545 9.7288 5.4459-3.934 9.9882-7.6533 6.875-11.934-2.2052-3.1132-10.021 6.5278-13.491 2.0754-3.4075-4.3721-0.37209-4.4123 2.8538-7.3939-2.7594-1.2369-13.919 11.922-16.604 1.816-2.6002-9.7878 8.8329-10.341 17.641-9.2099-2.6841-1.0281-5.1394-1.1344-8.3019-1.0378-1.0532-4.5828 3.7573-7.1735 10.637-5.3184 9.9367 2.6796 13.818 16.169 11.934 21.274z"/>
   <path d="m192.3 52.284c10.945-11.926-2.119-22.847-22.369-14.281 21.621-12.521 35.766 4.0348 22.369 14.281z"/>
  </g>
  <path d="m49.468 150.38c9.38 9.9164 2.2782 15.777-3.9615 16.408-1.8971 2.9832 5.9864 8.3861-1.3138 14.626-5.2759 4.5099-4.86-2.0646-6.4233-6.2911-2.0855 1.7619 3.3246 17.758-5.4934 15.686-8.6409-4.415-6.4801-14.309-2.5022-19.918-1.8704 1.7996-2.5689 2.7772-4.7835 2.6263-2.5445-5.5243 4.6528-9.2169 9.3966-8.992 6.3866 0.30283 24.74 2.0801 15.081-14.145z" fill="#fcfcfc"/>
  <path d="m39.961 166.07c-8.2289 2.4002-10.743 12.806-8.1831 18.912-4.3602-7.8093 0.19842-17.697 8.1831-18.912z" fill="#fcfcfc"/>
  <path d="m58.726 411.41c-10.569 13.379-3.1758 23.677 3.7027 26.076 2.3788 2.9437-8.4153 14.048 2.1446 16.444-0.27805-3.2576-0.4863-4.8966 1.2171-4.8557 3.5254 0.08453-4.0934 9.3509 0.42638 13.441 6.2335 5.6405 17.927-6.4079 12.782-16.816 1.9434 1.7328 1.8949 2.7676 2.2457 4.9528 3.666-6.8474-1.5727-14.056-7.0877-13.503-8.4392 0.84665-26.41-3.2353-15.431-25.739z" fill="#fff"/>
  <path d="m65.007 437.66c5.6862 4.4551 12.829 9.6957 5.1268 22.855 9.5339-11.553 3.4018-17.739-5.1268-22.855z" fill="#fff"/>
  <path d="m358.27 51.65c-2.8394-1.6406-4.1427-2.2864-8.2217-3.3637 4.2462 2.1807 10.111 3.4897 6.9194 7.6524-1.8736 2.4434-2.1359 13.026 4.7149 11.901 4.9182-1.0718 3.1086-4.4002 2.7514-6.6614 2.695 0.61235 1.0927 14.672 10.315 10.195 10.106-4.906 0.52933-14.6-5.2322-17.075 2.5131 0.73971 5.6558 4.2399 8.1285-0.75329-0.58838-2.943-3.8306-5.177-9.1974-5.5163-7.2842-0.46043-7.5645 1.8159-10.178 3.6221z" fill="#fff"/>
  <path d="m359.51 53.122c2.6977 1.0581 10.253 3.6124 15.091 15.082-3.5253-12.016-10.789-13.667-15.091-15.082z" fill="#fff"/>
  <path d="m468.73 65.743c-1.4461-1.9085-0.72183-10.829-17.891-8.6858 14.472 0.52655 13.241 4.3217 15.191 9.0536-3.5671-0.06575-9.9192 5.0602-7.9858 10.62 4.0069 1.9518 5.8016-0.5193 7.9455-1.9422 1.761 1.853-9.0144 8.3281 0.94354 11.885 11.48 4.1009 11.215-8.6225 8.3108-13.296 1.5176 1.8309 1.514 5.6926 7.2313 4.0017 1.6897-2.1195 0.67676-5.2629-3.48-8.4156-5.6418-4.2791-6.785-2.8899-10.265-3.2217z" fill="#fff"/>
  <path d="m468.66 67.476c1.11 4.5233 3.484 8.8613 0.82416 16.569 4.0544-8.4482 1.1429-11.154-0.82416-16.569z" fill="#fff"/>
  <path d="m47.721 208.91c-0.74046 17.969 2.9439 27.753 14.928 27.085 4.1102-3.4221-6.7195-3.606-3.9137-11.145 1.8004-4.838 5.444-2.1604 9.4856 0.51891 0.82103-2.1354-14.061-6.4152-6.7004-13.192 10.352-5.0603 13.967 4.4335 15.363 11.532 0.80647-1.4112 1.3532-3.0088 0.55659-5.4329 3.2281 0.8037 4.7006 2.633 4.4427 6.6028-0.52597 8.0965-8.3574 14.797-18.381 14.731-11.228-0.07401-21.153-8.9227-15.781-30.7z" fill="#fff"/>
  <path d="m63.864 236.95c8.8247-0.64679 14.114-16.912 1.3189-22.342 15.347 4.4909 7.7694 23.166-1.3189 22.342z" fill="#fff"/>
  <path d="m44.224 355.35c1.7776 3.2891 2.4914 4.6451 4.183 6.6093 1.1567-3.1159 9.007-6.9843 12.365-3.2359 4.0394 4.5089-2.8561 3.7727-1.5645 6.5685 2.3328 0.82764 6.9653-13.232 13.404-5.5037 4.9044 9.4232-6.1684 14.951-12.482 13.746 1.3348 1.1091 2.444 1.2706 4.3597 0.93082-2.3443 5.0262-5.5213 4.5687-9.8999 4.4126-4.8637-0.17346-8.9433-5.1562-8.2018-9.8861 0.29011-1.8506 0.45391-3.0422 1.6045-5.9848-0.23233-1.6357-2.5508-3.9489-3.7683-7.6569z" fill="#fff"/>
  <path d="m49.238 364.91c4.931 2.8598 13.056 6.8365 20.806-1.8869-7.5736 10.089-16.246 5.607-20.806 1.8869z" fill="#fff"/>
 </g>
</svg>
